<svg version="1.2" xmlns="http://www.w3.org/2000/svg" viewBox="0 0 12 12" width="12" height="12"><style>.a{fill:#fff}</style><g style="opacity:.8"><path class="a" d="m10.5 0c0.8 0 1.5 0.7 1.5 1.5 0 0.8-0.7 1.5-1.5 1.5-0.8 0-1.5-0.7-1.5-1.5 0-0.8 0.7-1.5 1.5-1.5zm-9 0c0.8 0 1.5 0.7 1.5 1.5 0 0.8-0.7 1.5-1.5 1.5-0.8 0-1.5-0.7-1.5-1.5 0-0.8 0.7-1.5 1.5-1.5zm9 9c0.8 0 1.5 0.7 1.5 1.5 0 0.8-0.7 1.5-1.5 1.5-0.8 0-1.5-0.7-1.5-1.5 0-0.8 0.7-1.5 1.5-1.5zm-9 0c0.8 0 1.5 0.7 1.5 1.5 0 0.8-0.7 1.5-1.5 1.5-0.8 0-1.5-0.7-1.5-1.5 0-0.8 0.7-1.5 1.5-1.5z"/></g></svg>